<mxfile host="app.diagrams.net" agent="Mozilla/5.0 (Windows NT 10.0; Win64; x64) AppleWebKit/537.36 (KHTML, like Gecko) Chrome/138.0.0.0 Safari/537.36" version="25.0.1">
  <diagram name="Page-1" id="tnQ678aVrlw4dm5YoUwT">
    <mxGraphModel dx="794" dy="384" grid="0" gridSize="10" guides="1" tooltips="1" connect="1" arrows="1" fold="1" page="1" pageScale="1" pageWidth="850" pageHeight="1100" background="none" math="0" shadow="0">
      <root>
        <mxCell id="0" />
        <mxCell id="1" parent="0" />
        <mxCell id="ZSYq4ZnVDpGivRZ-uzch-1" value="USER" style="swimlane;fontStyle=0;childLayout=stackLayout;horizontal=1;startSize=26;fillColor=none;horizontalStack=0;resizeParent=1;resizeParentMax=0;resizeLast=0;collapsible=1;marginBottom=0;html=1;" vertex="1" collapsed="1" parent="1">
          <mxGeometry x="317" y="134" width="68" height="26" as="geometry">
            <mxRectangle x="273" y="176" width="148" height="78" as="alternateBounds" />
          </mxGeometry>
        </mxCell>
        <mxCell id="ZSYq4ZnVDpGivRZ-uzch-2" value="id&lt;div&gt;Vendor_id (userTAB) (FK)&lt;/div&gt;" style="text;strokeColor=none;fillColor=none;align=left;verticalAlign=top;spacingLeft=4;spacingRight=4;overflow=hidden;rotatable=0;points=[[0,0.5],[1,0.5]];portConstraint=eastwest;whiteSpace=wrap;html=1;" vertex="1" parent="ZSYq4ZnVDpGivRZ-uzch-1">
          <mxGeometry y="26" width="148" height="52" as="geometry" />
        </mxCell>
        <mxCell id="ZSYq4ZnVDpGivRZ-uzch-5" style="edgeStyle=orthogonalEdgeStyle;rounded=0;orthogonalLoop=1;jettySize=auto;html=1;exitX=1;exitY=0.5;exitDx=0;exitDy=0;" edge="1" parent="ZSYq4ZnVDpGivRZ-uzch-1">
          <mxGeometry relative="1" as="geometry">
            <mxPoint x="116" y="65" as="sourcePoint" />
            <mxPoint x="116" y="65" as="targetPoint" />
          </mxGeometry>
        </mxCell>
        <mxCell id="ZSYq4ZnVDpGivRZ-uzch-7" value="Permission" style="swimlane;fontStyle=0;childLayout=stackLayout;horizontal=1;startSize=26;fillColor=none;horizontalStack=0;resizeParent=1;resizeParentMax=0;resizeLast=0;collapsible=1;marginBottom=0;html=1;" vertex="1" collapsed="1" parent="1">
          <mxGeometry x="109" y="104" width="94" height="26" as="geometry">
            <mxRectangle x="148" y="104" width="140" height="104" as="alternateBounds" />
          </mxGeometry>
        </mxCell>
        <mxCell id="ZSYq4ZnVDpGivRZ-uzch-8" value="id" style="text;strokeColor=none;fillColor=none;align=left;verticalAlign=top;spacingLeft=4;spacingRight=4;overflow=hidden;rotatable=0;points=[[0,0.5],[1,0.5]];portConstraint=eastwest;whiteSpace=wrap;html=1;" vertex="1" parent="ZSYq4ZnVDpGivRZ-uzch-7">
          <mxGeometry y="26" width="140" height="26" as="geometry" />
        </mxCell>
        <mxCell id="ZSYq4ZnVDpGivRZ-uzch-9" value="permission(varchar)" style="text;strokeColor=none;fillColor=none;align=left;verticalAlign=top;spacingLeft=4;spacingRight=4;overflow=hidden;rotatable=0;points=[[0,0.5],[1,0.5]];portConstraint=eastwest;whiteSpace=wrap;html=1;" vertex="1" parent="ZSYq4ZnVDpGivRZ-uzch-7">
          <mxGeometry y="52" width="140" height="26" as="geometry" />
        </mxCell>
        <mxCell id="ZSYq4ZnVDpGivRZ-uzch-10" value="type(varchar)&lt;div&gt;&lt;br&gt;&lt;/div&gt;" style="text;strokeColor=none;fillColor=none;align=left;verticalAlign=top;spacingLeft=4;spacingRight=4;overflow=hidden;rotatable=0;points=[[0,0.5],[1,0.5]];portConstraint=eastwest;whiteSpace=wrap;html=1;" vertex="1" parent="ZSYq4ZnVDpGivRZ-uzch-7">
          <mxGeometry y="78" width="140" height="26" as="geometry" />
        </mxCell>
        <mxCell id="ZSYq4ZnVDpGivRZ-uzch-11" value="user_permissions" style="swimlane;fontStyle=0;childLayout=stackLayout;horizontal=1;startSize=26;fillColor=none;horizontalStack=0;resizeParent=1;resizeParentMax=0;resizeLast=0;collapsible=1;marginBottom=0;html=1;" vertex="1" collapsed="1" parent="1">
          <mxGeometry x="273" y="35" width="129" height="26" as="geometry">
            <mxRectangle x="328" y="34" width="140" height="104" as="alternateBounds" />
          </mxGeometry>
        </mxCell>
        <mxCell id="ZSYq4ZnVDpGivRZ-uzch-12" value="id" style="text;strokeColor=none;fillColor=none;align=left;verticalAlign=top;spacingLeft=4;spacingRight=4;overflow=hidden;rotatable=0;points=[[0,0.5],[1,0.5]];portConstraint=eastwest;whiteSpace=wrap;html=1;" vertex="1" parent="ZSYq4ZnVDpGivRZ-uzch-11">
          <mxGeometry y="26" width="140" height="26" as="geometry" />
        </mxCell>
        <mxCell id="ZSYq4ZnVDpGivRZ-uzch-13" value="permission_id(FK)" style="text;strokeColor=none;fillColor=none;align=left;verticalAlign=top;spacingLeft=4;spacingRight=4;overflow=hidden;rotatable=0;points=[[0,0.5],[1,0.5]];portConstraint=eastwest;whiteSpace=wrap;html=1;" vertex="1" parent="ZSYq4ZnVDpGivRZ-uzch-11">
          <mxGeometry y="52" width="140" height="26" as="geometry" />
        </mxCell>
        <mxCell id="ZSYq4ZnVDpGivRZ-uzch-14" value="user_id(FK)" style="text;strokeColor=none;fillColor=none;align=left;verticalAlign=top;spacingLeft=4;spacingRight=4;overflow=hidden;rotatable=0;points=[[0,0.5],[1,0.5]];portConstraint=eastwest;whiteSpace=wrap;html=1;" vertex="1" parent="ZSYq4ZnVDpGivRZ-uzch-11">
          <mxGeometry y="78" width="140" height="26" as="geometry" />
        </mxCell>
        <mxCell id="ZSYq4ZnVDpGivRZ-uzch-15" value="vendor" style="swimlane;fontStyle=0;childLayout=stackLayout;horizontal=1;startSize=26;fillColor=none;horizontalStack=0;resizeParent=1;resizeParentMax=0;resizeLast=0;collapsible=1;marginBottom=0;html=1;" vertex="1" collapsed="1" parent="1">
          <mxGeometry x="476" y="96" width="72" height="26" as="geometry">
            <mxRectangle x="490" y="80" width="151" height="196" as="alternateBounds" />
          </mxGeometry>
        </mxCell>
        <mxCell id="ZSYq4ZnVDpGivRZ-uzch-16" value="id&lt;div&gt;user_id(FK)&lt;/div&gt;&lt;div&gt;registration_num(varchar)&lt;/div&gt;&lt;div&gt;name(varchar)&lt;/div&gt;&lt;div&gt;email(varchar)&lt;/div&gt;&lt;div&gt;notifiy_email(varchar)&lt;/div&gt;&lt;div&gt;phone(varchar)&lt;/div&gt;&lt;div&gt;address(varchar)&lt;/div&gt;&lt;div&gt;logo(varchar)&lt;/div&gt;&lt;div&gt;website(varchar)&lt;/div&gt;&lt;div&gt;Timestamps&lt;/div&gt;" style="text;strokeColor=none;fillColor=none;align=left;verticalAlign=top;spacingLeft=4;spacingRight=4;overflow=hidden;rotatable=0;points=[[0,0.5],[1,0.5]];portConstraint=eastwest;whiteSpace=wrap;html=1;" vertex="1" parent="ZSYq4ZnVDpGivRZ-uzch-15">
          <mxGeometry y="26" width="151" height="170" as="geometry" />
        </mxCell>
        <mxCell id="ZSYq4ZnVDpGivRZ-uzch-19" value="vendor_activity_log" style="swimlane;fontStyle=0;childLayout=stackLayout;horizontal=1;startSize=26;fillColor=none;horizontalStack=0;resizeParent=1;resizeParentMax=0;resizeLast=0;collapsible=1;marginBottom=0;html=1;" vertex="1" collapsed="1" parent="1">
          <mxGeometry x="617" y="96" width="138" height="26" as="geometry">
            <mxRectangle x="525" y="165" width="140" height="150" as="alternateBounds" />
          </mxGeometry>
        </mxCell>
        <mxCell id="ZSYq4ZnVDpGivRZ-uzch-20" value="id&lt;div&gt;user_id(FK)&lt;/div&gt;&lt;div&gt;vendor_id(FK)&lt;/div&gt;&lt;div&gt;subject_type----&lt;/div&gt;&lt;div&gt;subject_id------&lt;/div&gt;&lt;div&gt;status (varchar)&lt;/div&gt;&lt;div&gt;data&amp;nbsp; ( longtext)&lt;/div&gt;&lt;div style=&quot;line-height: 140%;&quot;&gt;Timestamp&lt;/div&gt;" style="text;strokeColor=none;fillColor=none;align=left;verticalAlign=top;spacingLeft=4;spacingRight=4;overflow=hidden;rotatable=0;points=[[0,0.5],[1,0.5]];portConstraint=eastwest;whiteSpace=wrap;html=1;" vertex="1" parent="ZSYq4ZnVDpGivRZ-uzch-19">
          <mxGeometry y="26" width="140" height="124" as="geometry" />
        </mxCell>
        <mxCell id="ZSYq4ZnVDpGivRZ-uzch-23" value="vendor_document" style="swimlane;fontStyle=0;childLayout=stackLayout;horizontal=1;startSize=26;fillColor=none;horizontalStack=0;resizeParent=1;resizeParentMax=0;resizeLast=0;collapsible=1;marginBottom=0;html=1;" vertex="1" collapsed="1" parent="1">
          <mxGeometry x="520" y="174" width="131" height="26" as="geometry">
            <mxRectangle x="416" y="177" width="143" height="153" as="alternateBounds" />
          </mxGeometry>
        </mxCell>
        <mxCell id="ZSYq4ZnVDpGivRZ-uzch-24" value="id&lt;div&gt;admin_id(user_tab)(FK)&lt;/div&gt;&lt;div&gt;vendor_id(FK)&lt;/div&gt;&lt;div&gt;name(varchar)&lt;/div&gt;&lt;div&gt;path(varchar)&lt;/div&gt;&lt;div&gt;type(varchar)&lt;/div&gt;&lt;div&gt;size (bigint 20)&lt;/div&gt;&lt;div&gt;Timestamps&lt;/div&gt;" style="text;strokeColor=none;fillColor=none;align=left;verticalAlign=top;spacingLeft=4;spacingRight=4;overflow=hidden;rotatable=0;points=[[0,0.5],[1,0.5]];portConstraint=eastwest;whiteSpace=wrap;html=1;" vertex="1" parent="ZSYq4ZnVDpGivRZ-uzch-23">
          <mxGeometry y="26" width="143" height="127" as="geometry" />
        </mxCell>
        <mxCell id="ZSYq4ZnVDpGivRZ-uzch-27" value="vendors_jobs" style="swimlane;fontStyle=0;childLayout=stackLayout;horizontal=1;startSize=26;fillColor=none;horizontalStack=0;resizeParent=1;resizeParentMax=0;resizeLast=0;collapsible=1;marginBottom=0;html=1;" vertex="1" collapsed="1" parent="1">
          <mxGeometry x="545" y="259" width="106" height="26" as="geometry">
            <mxRectangle x="345" y="243" width="198" height="558" as="alternateBounds" />
          </mxGeometry>
        </mxCell>
        <mxCell id="ZSYq4ZnVDpGivRZ-uzch-28" value="id&lt;div&gt;vendor_id(userTab)FK&lt;/div&gt;&lt;div&gt;job_owner_id(userTAB)FK&lt;/div&gt;&lt;div&gt;customer_id (FK)&lt;/div&gt;&lt;div&gt;job_uni_id (varchar)&lt;/div&gt;&lt;div&gt;job_title(varchar)&lt;/div&gt;&lt;div&gt;job_description(varchar)&lt;/div&gt;&lt;div&gt;office_note(varchar)&lt;/div&gt;&lt;div&gt;staf_note(varchar)&lt;/div&gt;&lt;div&gt;customer_name(varchar)&lt;/div&gt;&lt;div&gt;number_of_staf (int)&lt;/div&gt;&lt;div&gt;assigned_staf (int)&lt;/div&gt;&lt;div&gt;assigned_equipment(int)&lt;/div&gt;&lt;div&gt;assigned_contract(int)&lt;/div&gt;&lt;div&gt;hours_booked (varchar)&lt;/div&gt;&lt;div&gt;start_date_time (Timestamp)&lt;/div&gt;&lt;div&gt;completed_at (timestamp)&lt;/div&gt;&lt;div&gt;address (varchar)&lt;/div&gt;&lt;div&gt;location (varchar)&lt;/div&gt;&lt;div&gt;secondary_loca (varchar)&lt;/div&gt;&lt;div&gt;secondary_address (varchar)&lt;/div&gt;&lt;div&gt;latitude (varchar)&lt;/div&gt;&lt;div&gt;longitude (varchar)&lt;/div&gt;&lt;div&gt;secondary_lattude (varchar)&lt;/div&gt;&lt;div&gt;secondary_longitude (varchar)&lt;/div&gt;&lt;div&gt;&amp;nbsp;repeate_days (varchar)&lt;/div&gt;&lt;div&gt;resource_description (varchar)&lt;/div&gt;&lt;div&gt;signatory_docum (varchar)&lt;/div&gt;&lt;div&gt;status (int)&lt;/div&gt;&lt;div&gt;isparent (int)&lt;/div&gt;&lt;div&gt;notes (varchar)&lt;/div&gt;&lt;div&gt;job_complete_photo (varchar)&lt;/div&gt;&lt;div&gt;activity (varchar)&lt;/div&gt;&lt;div&gt;staf_roles (varchar)&lt;/div&gt;&lt;div&gt;authrized_person (varchar)&lt;/div&gt;&lt;div&gt;Timestamps&lt;/div&gt;" style="text;strokeColor=none;fillColor=none;align=left;verticalAlign=top;spacingLeft=4;spacingRight=4;overflow=hidden;rotatable=0;points=[[0,0.5],[1,0.5]];portConstraint=eastwest;whiteSpace=wrap;html=1;" vertex="1" parent="ZSYq4ZnVDpGivRZ-uzch-27">
          <mxGeometry y="26" width="198" height="532" as="geometry" />
        </mxCell>
        <mxCell id="ZSYq4ZnVDpGivRZ-uzch-31" value="task" style="swimlane;fontStyle=0;childLayout=stackLayout;horizontal=1;startSize=26;fillColor=none;horizontalStack=0;resizeParent=1;resizeParentMax=0;resizeLast=0;collapsible=1;marginBottom=0;html=1;" vertex="1" collapsed="1" parent="1">
          <mxGeometry x="72" y="246" width="57" height="26" as="geometry">
            <mxRectangle x="537" y="7" width="140" height="149" as="alternateBounds" />
          </mxGeometry>
        </mxCell>
        <mxCell id="ZSYq4ZnVDpGivRZ-uzch-32" value="id&lt;div&gt;vendor_id (userTAB) FK&lt;/div&gt;&lt;div&gt;title&lt;/div&gt;&lt;div&gt;description&lt;/div&gt;&lt;div&gt;priority&lt;/div&gt;&lt;div&gt;status (int)&lt;/div&gt;&lt;div&gt;due_date (timestamps)&lt;/div&gt;&lt;div&gt;Timestamps&lt;/div&gt;" style="text;strokeColor=none;fillColor=none;align=left;verticalAlign=top;spacingLeft=4;spacingRight=4;overflow=hidden;rotatable=0;points=[[0,0.5],[1,0.5]];portConstraint=eastwest;whiteSpace=wrap;html=1;" vertex="1" parent="ZSYq4ZnVDpGivRZ-uzch-31">
          <mxGeometry y="26" width="140" height="123" as="geometry" />
        </mxCell>
        <mxCell id="ZSYq4ZnVDpGivRZ-uzch-35" value="qualification" style="swimlane;fontStyle=0;childLayout=stackLayout;horizontal=1;startSize=26;fillColor=none;horizontalStack=0;resizeParent=1;resizeParentMax=0;resizeLast=0;collapsible=1;marginBottom=0;html=1;" vertex="1" collapsed="1" parent="1">
          <mxGeometry x="159" y="179" width="98" height="26" as="geometry">
            <mxRectangle x="173" y="223" width="227" height="199" as="alternateBounds" />
          </mxGeometry>
        </mxCell>
        <mxCell id="ZSYq4ZnVDpGivRZ-uzch-36" value="&lt;div style=&quot;font-family: Consolas, &amp;quot;Courier New&amp;quot;, monospace; font-size: 14px; line-height: 19px; white-space: pre;&quot;&gt;&lt;div style=&quot;&quot;&gt;&lt;font style=&quot;background-color: rgb(255, 255, 204);&quot; color=&quot;#000033&quot;&gt;&#39;staff_id&#39; (userTAB) FK&lt;/font&gt;&lt;/div&gt;&lt;div style=&quot;&quot;&gt;&lt;font style=&quot;background-color: rgb(255, 255, 204);&quot; color=&quot;#000033&quot;&gt;&#39;contractor_id&#39; (userTAB) FK&lt;/font&gt;&lt;/div&gt;&lt;div style=&quot;&quot;&gt;&lt;font style=&quot;background-color: rgb(255, 255, 204);&quot; color=&quot;#000033&quot;&gt;&#39;qualification&#39;,&lt;/font&gt;&lt;/div&gt;&lt;div style=&quot;&quot;&gt;&lt;font style=&quot;background-color: rgb(255, 255, 204);&quot; color=&quot;#000033&quot;&gt;&#39;instituation_name&#39;,&lt;/font&gt;&lt;/div&gt;&lt;div style=&quot;&quot;&gt;&lt;font style=&quot;background-color: rgb(255, 255, 204);&quot; color=&quot;#000033&quot;&gt;&#39;effective_date&#39;,&lt;/font&gt;&lt;/div&gt;&lt;div style=&quot;&quot;&gt;&lt;font style=&quot;background-color: rgb(255, 255, 204);&quot; color=&quot;#000033&quot;&gt;&#39;expiry_date&#39;,&lt;/font&gt;&lt;/div&gt;&lt;div style=&quot;&quot;&gt;&lt;font style=&quot;background-color: rgb(255, 255, 204);&quot; color=&quot;#000033&quot;&gt;&#39;document&#39;,&lt;/font&gt;&lt;/div&gt;&lt;div style=&quot;&quot;&gt;&lt;font style=&quot;background-color: rgb(255, 255, 204);&quot; color=&quot;#000033&quot;&gt;timestamps&lt;/font&gt;&lt;/div&gt;&lt;/div&gt;" style="text;strokeColor=none;fillColor=none;align=left;verticalAlign=top;spacingLeft=4;spacingRight=4;overflow=hidden;rotatable=0;points=[[0,0.5],[1,0.5]];portConstraint=eastwest;whiteSpace=wrap;html=1;" vertex="1" parent="ZSYq4ZnVDpGivRZ-uzch-35">
          <mxGeometry y="26" width="227" height="173" as="geometry" />
        </mxCell>
        <mxCell id="ZSYq4ZnVDpGivRZ-uzch-39" value="Notifications" style="swimlane;fontStyle=0;childLayout=stackLayout;horizontal=1;startSize=26;fillColor=none;horizontalStack=0;resizeParent=1;resizeParentMax=0;resizeLast=0;collapsible=1;marginBottom=0;html=1;" vertex="1" collapsed="1" parent="1">
          <mxGeometry x="359" y="213" width="100" height="26" as="geometry">
            <mxRectangle x="346" y="120" width="211" height="203" as="alternateBounds" />
          </mxGeometry>
        </mxCell>
        <mxCell id="ZSYq4ZnVDpGivRZ-uzch-40" value="&lt;div style=&quot;font-family: Consolas, &amp;quot;Courier New&amp;quot;, monospace; font-size: 14px; line-height: 19px; white-space: pre;&quot;&gt;&lt;div style=&quot;&quot;&gt;&lt;span style=&quot;background-color: rgb(255, 255, 204);&quot;&gt;&lt;font color=&quot;#000033&quot;&gt;&#39;user_id&#39;,(userTAB)FK&lt;/font&gt;&lt;/span&gt;&lt;/div&gt;&lt;div style=&quot;&quot;&gt;&lt;span style=&quot;background-color: rgb(255, 255, 204);&quot;&gt;&lt;font color=&quot;#000033&quot;&gt;&#39;sender_id&#39;,(userTAB)FK&lt;/font&gt;&lt;/span&gt;&lt;/div&gt;&lt;div style=&quot;&quot;&gt;&lt;span style=&quot;background-color: rgb(255, 255, 204);&quot;&gt;&lt;font color=&quot;#000033&quot;&gt;&#39;notifiable_id&#39;,(bigint)&lt;/font&gt;&lt;/span&gt;&lt;/div&gt;&lt;div style=&quot;&quot;&gt;&lt;span style=&quot;background-color: rgb(255, 255, 204);&quot;&gt;&lt;font color=&quot;#000033&quot;&gt;&#39;notifiable_type&#39;,(varchar)&lt;/font&gt;&lt;/span&gt;&lt;/div&gt;&lt;div style=&quot;&quot;&gt;&lt;span style=&quot;background-color: rgb(255, 255, 204);&quot;&gt;&lt;font color=&quot;#000033&quot;&gt;&#39;subject&#39;,(varchar)&lt;/font&gt;&lt;/span&gt;&lt;/div&gt;&lt;div style=&quot;&quot;&gt;&lt;span style=&quot;background-color: rgb(255, 255, 204);&quot;&gt;&lt;font color=&quot;#000033&quot;&gt;&#39;body&#39;,(varchar)&lt;/font&gt;&lt;/span&gt;&lt;/div&gt;&lt;div style=&quot;&quot;&gt;&lt;span style=&quot;background-color: rgb(255, 255, 204);&quot;&gt;&lt;font color=&quot;#000033&quot;&gt;&#39;child_id&#39;(int)&lt;/font&gt;&lt;/span&gt;&lt;/div&gt;&lt;div style=&quot;&quot;&gt;&lt;span style=&quot;background-color: rgb(255, 255, 204);&quot;&gt;&lt;font color=&quot;#000033&quot;&gt;read (int 1) def(0)&lt;/font&gt;&lt;/span&gt;&lt;/div&gt;&lt;div style=&quot;&quot;&gt;&lt;span style=&quot;background-color: rgb(255, 255, 204);&quot;&gt;&lt;font color=&quot;#000033&quot;&gt;Tiestamps&lt;/font&gt;&lt;/span&gt;&lt;/div&gt;&lt;/div&gt;" style="text;strokeColor=none;fillColor=none;align=left;verticalAlign=top;spacingLeft=4;spacingRight=4;overflow=hidden;rotatable=0;points=[[0,0.5],[1,0.5]];portConstraint=eastwest;whiteSpace=wrap;html=1;" vertex="1" parent="ZSYq4ZnVDpGivRZ-uzch-39">
          <mxGeometry y="26" width="211" height="177" as="geometry" />
        </mxCell>
        <mxCell id="ZSYq4ZnVDpGivRZ-uzch-43" value="nfc_tag_user" style="swimlane;fontStyle=0;childLayout=stackLayout;horizontal=1;startSize=26;fillColor=none;horizontalStack=0;resizeParent=1;resizeParentMax=0;resizeLast=0;collapsible=1;marginBottom=0;html=1;" vertex="1" collapsed="1" parent="1">
          <mxGeometry x="181" y="239" width="104" height="26" as="geometry">
            <mxRectangle x="181" y="239" width="186" height="93" as="alternateBounds" />
          </mxGeometry>
        </mxCell>
        <mxCell id="ZSYq4ZnVDpGivRZ-uzch-44" value="nfc_tag_id (nfc_tag TAB) FK&lt;div&gt;user_id (userTab)FK&lt;/div&gt;&lt;div&gt;status (int 1) def(0)&lt;/div&gt;&lt;div&gt;Timestamps&lt;/div&gt;" style="text;strokeColor=none;fillColor=none;align=left;verticalAlign=top;spacingLeft=4;spacingRight=4;overflow=hidden;rotatable=0;points=[[0,0.5],[1,0.5]];portConstraint=eastwest;whiteSpace=wrap;html=1;" vertex="1" parent="ZSYq4ZnVDpGivRZ-uzch-43">
          <mxGeometry y="26" width="186" height="67" as="geometry" />
        </mxCell>
        <mxCell id="ZSYq4ZnVDpGivRZ-uzch-47" value="nfc_tags_equipment" style="swimlane;fontStyle=0;childLayout=stackLayout;horizontal=1;startSize=26;fillColor=none;horizontalStack=0;resizeParent=1;resizeParentMax=0;resizeLast=0;collapsible=1;marginBottom=0;html=1;" vertex="1" collapsed="1" parent="1">
          <mxGeometry x="72" y="319" width="143" height="26" as="geometry">
            <mxRectangle x="332" y="324" width="140" height="121" as="alternateBounds" />
          </mxGeometry>
        </mxCell>
        <mxCell id="ZSYq4ZnVDpGivRZ-uzch-48" value="nfc_tag_id (nfc_tag TAB) FK&lt;div&gt;euipment_id (equipments) FK&lt;/div&gt;&lt;div&gt;status (int 1) def(0)&lt;/div&gt;&lt;div&gt;Timestamps&lt;/div&gt;" style="text;strokeColor=none;fillColor=none;align=left;verticalAlign=top;spacingLeft=4;spacingRight=4;overflow=hidden;rotatable=0;points=[[0,0.5],[1,0.5]];portConstraint=eastwest;whiteSpace=wrap;html=1;" vertex="1" parent="ZSYq4ZnVDpGivRZ-uzch-47">
          <mxGeometry y="26" width="140" height="95" as="geometry" />
        </mxCell>
        <mxCell id="ZSYq4ZnVDpGivRZ-uzch-51" value="nfc_tag" style="swimlane;fontStyle=0;childLayout=stackLayout;horizontal=1;startSize=26;fillColor=none;horizontalStack=0;resizeParent=1;resizeParentMax=0;resizeLast=0;collapsible=1;marginBottom=0;html=1;" vertex="1" collapsed="1" parent="1">
          <mxGeometry x="300.5" y="325" width="74" height="26" as="geometry">
            <mxRectangle x="332" y="324" width="140" height="139" as="alternateBounds" />
          </mxGeometry>
        </mxCell>
        <mxCell id="ZSYq4ZnVDpGivRZ-uzch-52" value="tag_uuid&lt;div&gt;status int(1) def(0)&lt;/div&gt;&lt;div&gt;description (varchar)&lt;/div&gt;&lt;div&gt;type {enum:[&quot;staf&quot;, &quot;equipment&quot;, &quot;contractor&quot;] }&lt;/div&gt;&lt;div&gt;Timestamps&lt;/div&gt;" style="text;strokeColor=none;fillColor=none;align=left;verticalAlign=top;spacingLeft=4;spacingRight=4;overflow=hidden;rotatable=0;points=[[0,0.5],[1,0.5]];portConstraint=eastwest;whiteSpace=wrap;html=1;" vertex="1" parent="ZSYq4ZnVDpGivRZ-uzch-51">
          <mxGeometry y="26" width="140" height="113" as="geometry" />
        </mxCell>
        <mxCell id="ZSYq4ZnVDpGivRZ-uzch-55" value="job_staf" style="swimlane;fontStyle=0;childLayout=stackLayout;horizontal=1;startSize=26;fillColor=none;horizontalStack=0;resizeParent=1;resizeParentMax=0;resizeLast=0;collapsible=1;marginBottom=0;html=1;" vertex="1" collapsed="1" parent="1">
          <mxGeometry x="443" y="351" width="77" height="26" as="geometry">
            <mxRectangle x="476" y="371" width="202" height="170" as="alternateBounds" />
          </mxGeometry>
        </mxCell>
        <mxCell id="ZSYq4ZnVDpGivRZ-uzch-56" value="vender_job_id (vender_job TAB) FK&lt;div&gt;staf_id (user TAB)FK&lt;/div&gt;&lt;div&gt;start_time (timestamp)&lt;/div&gt;&lt;div&gt;staf_role (varchar)&lt;/div&gt;&lt;div&gt;end_time (tiestamps)&lt;/div&gt;&lt;div&gt;staff_start_time (timestamps)&lt;/div&gt;&lt;div&gt;token (varchar)&lt;/div&gt;&lt;div&gt;isaccepted (tinyint 4) def(1)&lt;/div&gt;&lt;div&gt;reason (varchar)&lt;/div&gt;" style="text;strokeColor=none;fillColor=none;align=left;verticalAlign=top;spacingLeft=4;spacingRight=4;overflow=hidden;rotatable=0;points=[[0,0.5],[1,0.5]];portConstraint=eastwest;whiteSpace=wrap;html=1;" vertex="1" parent="ZSYq4ZnVDpGivRZ-uzch-55">
          <mxGeometry y="26" width="202" height="144" as="geometry" />
        </mxCell>
        <mxCell id="ZSYq4ZnVDpGivRZ-uzch-59" value="job_equipment" style="swimlane;fontStyle=0;childLayout=stackLayout;horizontal=1;startSize=26;fillColor=none;horizontalStack=0;resizeParent=1;resizeParentMax=0;resizeLast=0;collapsible=1;marginBottom=0;html=1;" vertex="1" collapsed="1" parent="1">
          <mxGeometry x="575" y="353" width="114" height="26" as="geometry">
            <mxRectangle x="626" y="362" width="218" height="137" as="alternateBounds" />
          </mxGeometry>
        </mxCell>
        <mxCell id="ZSYq4ZnVDpGivRZ-uzch-60" value="vendor_job_id (vender_job TAB) FK&lt;div&gt;equipment_id (equipment TAB) FK&lt;/div&gt;&lt;div&gt;status (tinyint 4) def(1)&lt;/div&gt;&lt;div&gt;start_tiem (timestamps)&lt;/div&gt;&lt;div&gt;end_time (timestamps)&lt;/div&gt;" style="text;strokeColor=none;fillColor=none;align=left;verticalAlign=top;spacingLeft=4;spacingRight=4;overflow=hidden;rotatable=0;points=[[0,0.5],[1,0.5]];portConstraint=eastwest;whiteSpace=wrap;html=1;" vertex="1" parent="ZSYq4ZnVDpGivRZ-uzch-59">
          <mxGeometry y="26" width="218" height="111" as="geometry" />
        </mxCell>
        <mxCell id="ZSYq4ZnVDpGivRZ-uzch-63" value="job_contractor" style="swimlane;fontStyle=0;childLayout=stackLayout;horizontal=1;startSize=26;fillColor=none;horizontalStack=0;resizeParent=1;resizeParentMax=0;resizeLast=0;collapsible=1;marginBottom=0;html=1;" vertex="1" collapsed="1" parent="1">
          <mxGeometry x="487" y="443" width="111" height="26" as="geometry">
            <mxRectangle x="487" y="443" width="201" height="149" as="alternateBounds" />
          </mxGeometry>
        </mxCell>
        <mxCell id="ZSYq4ZnVDpGivRZ-uzch-64" value="vendor_job_id (vendor_job TAB) FK&lt;div&gt;contractor_id (user_TAB) FK&lt;/div&gt;&lt;div&gt;start_time (timestamps)&lt;/div&gt;&lt;div&gt;end_time (timestamps)&lt;/div&gt;&lt;div&gt;contractor_start_time (timestamps)&lt;/div&gt;&lt;div&gt;token (varchar)&lt;/div&gt;&lt;div&gt;isaccepting (tinyint 4) def 1&lt;/div&gt;&lt;div&gt;reason (varcahr)&lt;/div&gt;" style="text;strokeColor=none;fillColor=none;align=left;verticalAlign=top;spacingLeft=4;spacingRight=4;overflow=hidden;rotatable=0;points=[[0,0.5],[1,0.5]];portConstraint=eastwest;whiteSpace=wrap;html=1;" vertex="1" parent="ZSYq4ZnVDpGivRZ-uzch-63">
          <mxGeometry y="26" width="201" height="123" as="geometry" />
        </mxCell>
        <mxCell id="ZSYq4ZnVDpGivRZ-uzch-68" value="job_batches" style="swimlane;fontStyle=0;childLayout=stackLayout;horizontal=1;startSize=26;fillColor=none;horizontalStack=0;resizeParent=1;resizeParentMax=0;resizeLast=0;collapsible=1;marginBottom=0;html=1;" vertex="1" collapsed="1" parent="1">
          <mxGeometry x="677" y="429" width="100" height="26" as="geometry">
            <mxRectangle x="677" y="429" width="140" height="163" as="alternateBounds" />
          </mxGeometry>
        </mxCell>
        <mxCell id="ZSYq4ZnVDpGivRZ-uzch-69" value="name (Varchar)&lt;div&gt;total_jobs (int)&lt;/div&gt;&lt;div&gt;pending_jobs (int)&lt;/div&gt;&lt;div&gt;failed_job (int)&lt;/div&gt;&lt;div&gt;failed_job_ids (varchar)&lt;/div&gt;&lt;div&gt;options (varchar)&lt;/div&gt;&lt;div&gt;cancelled_at (int)&lt;/div&gt;&lt;div&gt;created_at (int)&lt;/div&gt;&lt;div&gt;finish_at (int)&lt;/div&gt;" style="text;strokeColor=none;fillColor=none;align=left;verticalAlign=top;spacingLeft=4;spacingRight=4;overflow=hidden;rotatable=0;points=[[0,0.5],[1,0.5]];portConstraint=eastwest;whiteSpace=wrap;html=1;" vertex="1" parent="ZSYq4ZnVDpGivRZ-uzch-68">
          <mxGeometry y="26" width="140" height="137" as="geometry" />
        </mxCell>
        <mxCell id="ZSYq4ZnVDpGivRZ-uzch-72" value="jobs" style="swimlane;fontStyle=0;childLayout=stackLayout;horizontal=1;startSize=26;fillColor=none;horizontalStack=0;resizeParent=1;resizeParentMax=0;resizeLast=0;collapsible=1;marginBottom=0;html=1;" vertex="1" collapsed="1" parent="1">
          <mxGeometry x="345" y="441" width="57" height="26" as="geometry">
            <mxRectangle x="267.5" y="459" width="140" height="126" as="alternateBounds" />
          </mxGeometry>
        </mxCell>
        <mxCell id="ZSYq4ZnVDpGivRZ-uzch-73" value="queue (varchar)&lt;div&gt;payloads (varchar)&lt;/div&gt;&lt;div&gt;attempts (tinyint 3)&lt;/div&gt;&lt;div&gt;reserved_at (int)&lt;/div&gt;&lt;div&gt;available_at (int)&lt;/div&gt;&lt;div&gt;created_at (int)&lt;/div&gt;" style="text;strokeColor=none;fillColor=none;align=left;verticalAlign=top;spacingLeft=4;spacingRight=4;overflow=hidden;rotatable=0;points=[[0,0.5],[1,0.5]];portConstraint=eastwest;whiteSpace=wrap;html=1;" vertex="1" parent="ZSYq4ZnVDpGivRZ-uzch-72">
          <mxGeometry y="26" width="140" height="100" as="geometry" />
        </mxCell>
        <mxCell id="ZSYq4ZnVDpGivRZ-uzch-76" value="fcm_token" style="swimlane;fontStyle=0;childLayout=stackLayout;horizontal=1;startSize=26;fillColor=none;horizontalStack=0;resizeParent=1;resizeParentMax=0;resizeLast=0;collapsible=1;marginBottom=0;html=1;" vertex="1" collapsed="1" parent="1">
          <mxGeometry x="108" y="399" width="90" height="26" as="geometry">
            <mxRectangle x="108" y="399" width="140" height="112" as="alternateBounds" />
          </mxGeometry>
        </mxCell>
        <mxCell id="ZSYq4ZnVDpGivRZ-uzch-77" value="user_id (user TAB) FK&lt;div&gt;device_id (varchar)&lt;/div&gt;&lt;div&gt;device_type (varchar)&lt;/div&gt;&lt;div&gt;token (varchar)&lt;/div&gt;&lt;div&gt;Timestamp&lt;/div&gt;" style="text;strokeColor=none;fillColor=none;align=left;verticalAlign=top;spacingLeft=4;spacingRight=4;overflow=hidden;rotatable=0;points=[[0,0.5],[1,0.5]];portConstraint=eastwest;whiteSpace=wrap;html=1;" vertex="1" parent="ZSYq4ZnVDpGivRZ-uzch-76">
          <mxGeometry y="26" width="140" height="86" as="geometry" />
        </mxCell>
        <mxCell id="ZSYq4ZnVDpGivRZ-uzch-80" value="failed_job" style="swimlane;fontStyle=0;childLayout=stackLayout;horizontal=1;startSize=26;fillColor=none;horizontalStack=0;resizeParent=1;resizeParentMax=0;resizeLast=0;collapsible=1;marginBottom=0;html=1;" vertex="1" parent="1">
          <mxGeometry x="381" y="508" width="140" height="137" as="geometry" />
        </mxCell>
        <mxCell id="ZSYq4ZnVDpGivRZ-uzch-81" value="id (int)&lt;div&gt;uuid (varchar)&lt;/div&gt;&lt;div&gt;connection (varchar)&lt;/div&gt;&lt;div&gt;queue (varchar)&lt;/div&gt;&lt;div&gt;payload (varchar)&lt;/div&gt;&lt;div&gt;exception (varchar)&lt;/div&gt;&lt;div&gt;failed_at (timestamps)&lt;/div&gt;" style="text;strokeColor=none;fillColor=none;align=left;verticalAlign=top;spacingLeft=4;spacingRight=4;overflow=hidden;rotatable=0;points=[[0,0.5],[1,0.5]];portConstraint=eastwest;whiteSpace=wrap;html=1;" vertex="1" parent="ZSYq4ZnVDpGivRZ-uzch-80">
          <mxGeometry y="26" width="140" height="111" as="geometry" />
        </mxCell>
      </root>
    </mxGraphModel>
  </diagram>
</mxfile>
